<svg xmlns="http://www.w3.org/2000/svg" viewBox="0 0 677.24 838.07"><defs><style>.cls-1,.cls-10,.cls-11,.cls-12{fill:none;}.cls-1,.cls-10,.cls-11,.cls-12,.cls-2{stroke:#fff;stroke-miterlimit:10;}.cls-1,.cls-2{stroke-width:0.75px;}.cls-1{stroke-dasharray:5;}.cls-2,.cls-3{fill:#00ae65;}.cls-2{opacity:0.8;}.cls-4,.cls-6,.cls-7{font-size:24px;}.cls-4,.cls-5,.cls-6,.cls-7,.cls-9{fill:#fff;}.cls-14,.cls-4{font-family:KievitOT-Regular, KievitOT;}.cls-5{font-size:52px;}.cls-5,.cls-6{font-family:KievitOT-Light, KievitOT;font-weight:300;}.cls-7{font-family:KievitOT-Medium, KievitOT;font-weight:500;}.cls-8{letter-spacing:-0.04em;}.cls-10,.cls-11,.cls-12{stroke-width:0.5px;}.cls-11{stroke-dasharray:3.91 3.91;}.cls-12{stroke-dasharray:4;}.cls-13{letter-spacing:-0.01em;}.cls-14{font-size:28px;fill:#005157;}</style></defs><g id="Layer_2" data-name="Layer 2"><g id="viz-2"><polyline class="cls-1" points="0.38 48.88 0.38 19.71 676.87 19.71 676.87 48.88"/><circle class="cls-2" cx="172.12" cy="200.93" r="37.88"/><circle class="cls-3" cx="134.54" cy="279.19" r="10"/><circle class="cls-3" cx="172.12" cy="349.26" r="10"/><text class="cls-4" transform="translate(139.03 132.66)">Donne</text><text class="cls-5" transform="translate(194.42 212.5)">11.0</text><text class="cls-6" transform="translate(85.3 310.41)">3.4</text><text class="cls-7" transform="translate(83.3 287.6)">FK</text><circle class="cls-3" cx="218.36" cy="279.19" r="10"/><text class="cls-6" transform="translate(251.67 310.41)">3.1</text><text class="cls-7" transform="translate(249.67 287.6)"><tspan class="cls-8">F</tspan><tspan x="9.53" y="0">A</tspan></text><text class="cls-7" transform="translate(275.48 212.5)">FL</text><text class="cls-7" transform="translate(590.93 212.5)">FL</text><text class="cls-6" transform="translate(132.1 393.42)">4.4</text><text class="cls-7" transform="translate(130.1 370.61)">FB</text><circle class="cls-9" cx="172.12" cy="200.93" r="5"/><line class="cls-10" x1="172.12" y1="200.93" x2="171.25" y2="202.73"/><line class="cls-11" x1="169.56" y1="206.25" x2="136.51" y2="274.96"/><line class="cls-10" x1="135.66" y1="276.72" x2="134.8" y2="278.53"/><line class="cls-12" x1="172.12" y1="200.93" x2="172.12" y2="349.26"/><line class="cls-12" x1="172.12" y1="200.93" x2="218.36" y2="279.19"/><circle class="cls-2" cx="496.75" cy="200.93" r="49.39"/><circle class="cls-3" cx="459.17" cy="279.19" r="10"/><circle class="cls-3" cx="496.75" cy="349.26" r="10"/><text class="cls-4" transform="translate(460.38 132.66)"><tspan class="cls-13">U</tspan><tspan x="16.32" y="0">omini</tspan></text><text class="cls-5" transform="translate(519.06 212.5)">11.1</text><text class="cls-6" transform="translate(409.93 310.41)">3.6</text><text class="cls-7" transform="translate(407.93 287.6)">FK</text><circle class="cls-3" cx="542.99" cy="279.19" r="10"/><text class="cls-6" transform="translate(576.3 310.41)">3.0</text><text class="cls-7" transform="translate(574.31 287.6)"><tspan class="cls-8">F</tspan><tspan x="9.53" y="0">A</tspan></text><text class="cls-6" transform="translate(456.74 393.42)">4.4</text><text class="cls-7" transform="translate(454.74 370.61)">FB</text><circle class="cls-9" cx="496.75" cy="200.93" r="5"/><line class="cls-10" x1="496.75" y1="200.93" x2="495.88" y2="202.73"/><line class="cls-11" x1="494.19" y1="206.25" x2="461.14" y2="274.96"/><line class="cls-10" x1="460.3" y1="276.72" x2="459.43" y2="278.53"/><line class="cls-12" x1="496.75" y1="200.93" x2="496.75" y2="349.26"/><line class="cls-12" x1="496.75" y1="200.93" x2="542.99" y2="279.19"/><rect class="cls-9" x="292.55" width="92.14" height="39.42"/><text class="cls-14" transform="translate(313.16 27.87)">2017</text><polyline class="cls-1" points="0.38 487.53 0.38 458.36 676.87 458.36 676.87 487.53"/><circle class="cls-2" cx="172.12" cy="639.58" r="37.88"/><circle class="cls-3" cx="134.54" cy="717.84" r="11.45"/><circle class="cls-3" cx="172.12" cy="787.91" r="7.94"/><text class="cls-4" transform="translate(139.03 577.14)">Donne</text><text class="cls-5" transform="translate(194.42 651.16)">11.0</text><text class="cls-6" transform="translate(85.3 749.06)">3.8</text><text class="cls-7" transform="translate(83.3 726.25)">FK</text><circle class="cls-3" cx="218.36" cy="717.84" r="10"/><text class="cls-6" transform="translate(251.67 749.06)">3.1</text><text class="cls-7" transform="translate(249.67 726.25)"><tspan class="cls-8">F</tspan><tspan x="9.53" y="0">A</tspan></text><text class="cls-7" transform="translate(275.48 651.16)">FL</text><text class="cls-7" transform="translate(602.05 651.16)">FL</text><text class="cls-6" transform="translate(132.1 832.07)">4.1</text><text class="cls-7" transform="translate(130.1 809.26)">FB</text><circle class="cls-9" cx="172.12" cy="639.58" r="5"/><line class="cls-10" x1="172.12" y1="639.58" x2="171.25" y2="641.38"/><line class="cls-11" x1="169.56" y1="644.9" x2="136.51" y2="713.61"/><line class="cls-10" x1="135.66" y1="715.38" x2="134.8" y2="717.18"/><line class="cls-12" x1="172.12" y1="639.58" x2="172.12" y2="787.91"/><line class="cls-12" x1="172.12" y1="639.58" x2="218.36" y2="717.84"/><circle class="cls-2" cx="496.75" cy="639.58" r="49.39"/><circle class="cls-3" cx="459.17" cy="717.84" r="13.04"/><circle class="cls-3" cx="496.75" cy="787.91" r="9.12"/><text class="cls-4" transform="translate(460.38 577.14)"><tspan class="cls-13">U</tspan><tspan x="16.32" y="0">omini</tspan></text><text class="cls-5" transform="translate(519.06 651.16)">11.4</text><text class="cls-6" transform="translate(409.93 749.06)">4.1</text><text class="cls-7" transform="translate(407.93 726.25)">FK</text><circle class="cls-3" cx="542.99" cy="717.84" r="10"/><text class="cls-6" transform="translate(576.3 749.06)">3.0</text><text class="cls-7" transform="translate(574.31 726.25)"><tspan class="cls-8">F</tspan><tspan x="9.53" y="0">A</tspan></text><text class="cls-6" transform="translate(456.74 832.07)">4.3</text><text class="cls-7" transform="translate(454.74 809.26)">FB</text><circle class="cls-9" cx="496.75" cy="639.58" r="5"/><line class="cls-10" x1="496.75" y1="639.58" x2="495.88" y2="641.38"/><line class="cls-11" x1="494.19" y1="644.9" x2="461.14" y2="713.61"/><line class="cls-10" x1="460.3" y1="715.38" x2="459.43" y2="717.18"/><line class="cls-12" x1="496.75" y1="639.58" x2="496.75" y2="787.91"/><line class="cls-12" x1="496.75" y1="639.58" x2="542.99" y2="717.84"/><rect class="cls-9" x="292.55" y="438.65" width="92.14" height="39.42"/><text class="cls-14" transform="translate(312.25 466.52)">2018</text></g></g></svg>